# xmcd CD database file
#
# Track frame offsets:
#	150
#	10080
#	23262
#	34792
#	36526
#	55101
#	71506
#	89073
#	108803
#	129048
#	146378
#	162775
#	170100
#	186340
#	205077
#	223840
#	240445
#	288513
#	306873
#	320078
#
# Disc length: 4509 seconds
#
# Revision: 0
# Processed by: cddbd v1.5.1PL0 Copyright (c) Steve Scherf et al.
# Submitted via: CDex 1.51
#
DISCID=18119b14
DTITLE=Diversos - Zildo Selecao CD 07
DYEAR=2005
DGENRE=MPB
TTITLE0=Joao e Maria-Caetano e Bethania
TTITLE1=Meu bem querer-Zizi Possi
TTITLE2=Sonho impossivel-Maria Bethania
TTITLE3=A linha e o linho-Gilterto Gil
TTITLE4=Asa Morena-Zizi Possi
TTITLE5=Los hermanos-Elis Regina
TTITLE6=Pra ver as meninas-Marisa Monte
TTITLE7=Per amore-Zizi Possi
TTITLE8=So fiquei porque te amo-Gilberto Gil
TTITLE9=Me deixa em paz e outras-MPB 4
TTITLE10=Amor imenso-Nando Cordel
TTITLE11=Estranha forma de vida-Caetano Veloso
TTITLE12=Eu apenas queria-Gonzaguinha
TTITLE13=Guerreiro menino-Gonzaguinha
TTITLE14=Enredo do samba-Jorge Aragão/Sandra Sa
TTITLE15=Oi eu aqui de novo-Gilberto Gil
TTITLE16=Uma mulher e outros poemas-Vinicius
TTITLE17=Onde andara Maria-Bloco da Saudade
TTITLE18=Forro de cabo a rabo-Luiz Gonzaga
TTITLE19=Forro N 1-Luiz Gonzaga/Gal Costa
EXTD=YEAR: 2005
EXTT0=
EXTT1=
EXTT2=
EXTT3=
EXTT4=
EXTT5=
EXTT6=
EXTT7=
EXTT8=
EXTT9=
EXTT10=
EXTT11=
EXTT12=
EXTT13=
EXTT14=
EXTT15=
EXTT16=
EXTT17=
EXTT18=
EXTT19=
PLAYORDER=
